<svg width="22" height="22" viewBox="0 0 22 22" fill="none" xmlns="http://www.w3.org/2000/svg">
<path fill-rule="evenodd" clip-rule="evenodd" d="M6.18526 8.654e-07H15.3147C15.8846 -1.91346e-05 16.3686 -2.9169e-05 16.7685 0.0413208C17.1943 0.0853408 17.5878 0.180941 17.9596 0.410711C18.3314 0.640481 18.5929 0.949711 18.8227 1.31088C19.0385 1.6501 19.2549 2.08297 19.5098 2.5928L19.5263 2.62574C19.536 2.64518 19.5449 2.66504 19.5529 2.68526L20.9565 6.2334C21.1235 6.65559 21.3086 7.1823 21.3627 7.72128C21.4181 8.27258 21.3421 8.9041 20.9101 9.4519C20.5568 9.9 20.0655 10.2363 19.5 10.3963V20H20.75C21.1642 20 21.5 20.3358 21.5 20.75C21.5 21.1642 21.1642 21.5 20.75 21.5H0.75C0.33579 21.5 0 21.1642 0 20.75C0 20.3358 0.33579 20 0.75 20H2V10.3964C1.43446 10.2363 0.94312 9.9 0.58975 9.4519C0.15779 8.9041 0.08182 8.27257 0.13718 7.72127C0.1913 7.18229 0.37639 6.65559 0.5434 6.2334L1.94701 2.68526C1.95501 2.66504 1.96388 2.64518 1.97361 2.62574L1.9901 2.59275C2.24498 2.08295 2.46139 1.65009 2.67723 1.31088C2.90704 0.949711 3.16853 0.640481 3.54031 0.410711C3.91208 0.180941 4.30561 0.0853408 4.73142 0.0413208C5.13134 -2.9169e-05 5.61529 -1.91346e-05 6.18526 8.654e-07ZM16.7499 9.6375C17.0859 9.9933 17.5158 10.2596 18 10.3965V20H14V17.2178C14 16.778 14 16.3986 13.9718 16.0874C13.942 15.7582 13.8759 15.4322 13.6986 15.125C13.5011 14.783 13.217 14.4989 12.875 14.3014C12.5678 14.1241 12.2418 14.058 11.9127 14.0282C11.6014 14 11.222 14 10.7822 14H10.7178C10.278 14 9.8986 14 9.5873 14.0282C9.2582 14.058 8.9322 14.1241 8.625 14.3014C8.28296 14.4989 7.99892 14.783 7.80144 15.125C7.62407 15.4322 7.55802 15.7582 7.52818 16.0874C7.49997 16.3986 7.49998 16.778 7.5 17.2177V20H3.5V10.3965C3.98413 10.2595 4.41398 9.9933 4.74992 9.6375C5.2513 10.1686 5.9619 10.5 6.74991 10.5C7.53793 10.5 8.24853 10.1686 8.74992 9.6375C9.2513 10.1686 9.9619 10.5 10.7499 10.5C11.5379 10.5 12.2485 10.1686 12.7499 9.6375C13.2513 10.1686 13.9619 10.5 14.7499 10.5C15.5379 10.5 16.2485 10.1686 16.7499 9.6375ZM9 20H12.5V17.25C12.5 16.7689 12.4993 16.4582 12.4779 16.2227C12.4575 15.9976 12.4231 15.9159 12.3995 15.875C12.3337 15.761 12.239 15.6663 12.125 15.6005C12.0841 15.5769 12.0024 15.5425 11.7773 15.5221C11.5418 15.5007 11.2311 15.5 10.75 15.5C10.2689 15.5 9.9582 15.5007 9.7227 15.5221C9.4976 15.5425 9.4159 15.5769 9.375 15.6005C9.261 15.6663 9.1663 15.761 9.1005 15.875C9.0769 15.9159 9.0425 15.9976 9.0221 16.2227C9.0007 16.4582 9 16.7689 9 17.25V20ZM5.49991 7.75C5.49991 8.44036 6.05956 9 6.74991 9C7.44027 9 7.99991 8.44036 7.99991 7.75C7.99991 7.33579 8.3357 7 8.74991 7C9.1641 7 9.4999 7.33579 9.4999 7.75C9.4999 8.44036 10.0596 9 10.7499 9C11.4403 9 11.9999 8.44036 11.9999 7.75C11.9999 7.33579 12.3357 7 12.7499 7C13.1641 7 13.4999 7.33579 13.4999 7.75C13.4999 8.44036 14.0596 9 14.7499 9C15.4403 9 15.9999 8.44036 15.9999 7.75C15.9999 7.33579 16.3357 7 16.7499 7C17.1641 7 17.4999 7.33579 17.4999 7.75C17.4999 8.44036 18.0596 9 18.7499 9C19.1479 9 19.5022 8.8149 19.7323 8.52305C19.8462 8.37859 19.9013 8.18094 19.8702 7.87114C19.8379 7.54903 19.719 7.18275 19.5617 6.78518L18.1701 3.26739C17.9024 2.73204 17.7235 2.37749 17.5571 2.11612C17.3972 1.8647 17.2825 1.75562 17.171 1.68669C17.0595 1.61776 16.9106 1.56401 16.6142 1.53336C16.3005 1.50093 15.8946 1.5 15.2778 1.5H6.22214C5.60533 1.5 5.1994 1.50093 4.88569 1.53336C4.58927 1.56401 4.44044 1.61776 4.3289 1.68669C4.21737 1.75562 4.10274 1.8647 3.94276 2.11612C3.77646 2.37749 3.59755 2.73204 3.32983 3.26739L1.93823 6.78518C1.78095 7.18275 1.66202 7.54903 1.62967 7.87115C1.59856 8.18095 1.65366 8.37861 1.76759 8.52307C1.9977 8.8149 2.35196 9 2.74991 9C3.44027 9 3.99991 8.44036 3.99991 7.75C3.99991 7.33579 4.3357 7 4.74991 7C5.16413 7 5.49991 7.33579 5.49991 7.75Z" fill="#797979"/>
</svg>
