<svg width="22" height="22" viewBox="0 0 22 22" fill="none" xmlns="http://www.w3.org/2000/svg">
<path d="M10.745 21.5C10.115 21.5 9.485 21.29 8.995 20.87L7.415 19.51C7.255 19.37 6.855 19.23 6.645 19.23H4.925C3.445 19.23 2.245 18.03 2.245 16.55V14.84C2.245 14.63 2.105 14.24 1.965 14.08L0.615 12.49C-0.205 11.52 -0.205 9.99 0.615 9.02L1.965 7.43C2.105 7.27 2.245 6.88 2.245 6.67V4.95C2.245 3.47 3.445 2.27 4.925 2.27H6.655C6.865 2.27 7.265 2.12 7.425 1.99L9.005 0.63C9.985 -0.21 11.515 -0.21 12.495 0.63L14.075 1.99C14.235 2.13 14.635 2.27 14.845 2.27H16.545C18.025 2.27 19.225 3.47 19.225 4.95V6.65C19.225 6.86 19.375 7.26 19.515 7.42L20.875 9C21.715 9.98 21.715 11.51 20.875 12.49L19.515 14.07C19.375 14.23 19.225 14.63 19.225 14.84V16.54C19.225 18.02 18.025 19.22 16.545 19.22H14.845C14.635 19.22 14.235 19.37 14.075 19.5L12.495 20.86C12.005 21.29 11.375 21.5 10.745 21.5ZM4.925 3.77C4.275 3.77 3.745 4.3 3.745 4.95V6.66C3.745 7.23 3.475 7.96 3.105 8.39L1.755 9.98C1.405 10.39 1.405 11.1 1.755 11.51L3.105 13.1C3.475 13.54 3.745 14.26 3.745 14.83V16.54C3.745 17.19 4.275 17.72 4.925 17.72H6.655C7.235 17.72 7.965 17.99 8.405 18.37L9.985 19.73C10.395 20.08 11.115 20.08 11.525 19.73L13.105 18.37C13.545 18 14.275 17.72 14.855 17.72H16.555C17.205 17.72 17.735 17.19 17.735 16.54V14.84C17.735 14.26 18.005 13.53 18.385 13.09L19.745 11.51C20.095 11.1 20.095 10.38 19.745 9.97L18.385 8.39C18.005 7.95 17.735 7.22 17.735 6.64V4.95C17.735 4.3 17.205 3.77 16.555 3.77H14.855C14.275 3.77 13.545 3.5 13.105 3.12L11.525 1.76C11.115 1.41 10.395 1.41 9.985 1.76L8.405 3.13C7.965 3.5 7.225 3.77 6.655 3.77H4.925Z" fill="#797979"/>
</svg>
